<svg width="145" height="22" viewBox="0 0 145 22" fill="none" xmlns="http://www.w3.org/2000/svg">
<path d="M0.8 21V-1.43051e-06H3.32V18.48H12.725V21H0.8ZM25.1295 6H27.6495V21H25.1295L25.0245 18.465C24.5545 19.335 23.9045 20.04 23.0745 20.58C22.2545 21.12 21.2745 21.39 20.1345 21.39C19.0345 21.39 18.0045 21.185 17.0445 20.775C16.0845 20.355 15.2345 19.78 14.4945 19.05C13.7645 18.31 13.1945 17.46 12.7845 16.5C12.3745 15.54 12.1695 14.505 12.1695 13.395C12.1695 12.325 12.3695 11.315 12.7695 10.365C13.1695 9.415 13.7245 8.585 14.4345 7.875C15.1545 7.155 15.9845 6.595 16.9245 6.195C17.8645 5.785 18.8745 5.58 19.9545 5.58C21.1345 5.58 22.1695 5.86 23.0595 6.42C23.9495 6.97 24.6695 7.685 25.2195 8.565L25.1295 6ZM20.0895 18.945C21.0795 18.945 21.9345 18.705 22.6545 18.225C23.3845 17.735 23.9445 17.075 24.3345 16.245C24.7345 15.415 24.9345 14.5 24.9345 13.5C24.9345 12.48 24.7345 11.56 24.3345 10.74C23.9345 9.91 23.3695 9.255 22.6395 8.775C21.9195 8.285 21.0695 8.04 20.0895 8.04C19.0995 8.04 18.1995 8.285 17.3895 8.775C16.5795 9.265 15.9345 9.925 15.4545 10.755C14.9845 11.575 14.7495 12.49 14.7495 13.5C14.7495 14.51 14.9945 15.43 15.4845 16.26C15.9745 17.08 16.6245 17.735 17.4345 18.225C18.2445 18.705 19.1295 18.945 20.0895 18.945ZM36.9177 8.52H33.5127L33.4977 21H30.9777L30.9927 8.52H28.4127V6H30.9927L30.9777 1.29H33.4977L33.5127 6H36.9177V8.52ZM44.3258 21.39C42.9458 21.39 41.6858 21.035 40.5458 20.325C39.4158 19.615 38.5108 18.665 37.8308 17.475C37.1608 16.275 36.8258 14.95 36.8258 13.5C36.8258 12.4 37.0208 11.375 37.4108 10.425C37.8008 9.465 38.3358 8.625 39.0158 7.905C39.7058 7.175 40.5058 6.605 41.4158 6.195C42.3258 5.785 43.2958 5.58 44.3258 5.58C45.4558 5.58 46.4908 5.81 47.4308 6.27C48.3808 6.72 49.1908 7.35 49.8608 8.16C50.5408 8.97 51.0458 9.91 51.3758 10.98C51.7158 12.05 51.8408 13.195 51.7508 14.415H39.5108C39.6308 15.265 39.9108 16.025 40.3508 16.695C40.7908 17.355 41.3508 17.88 42.0308 18.27C42.7208 18.66 43.4858 18.86 44.3258 18.87C45.2258 18.87 46.0408 18.64 46.7708 18.18C47.5008 17.71 48.0908 17.07 48.5408 16.26L51.1058 16.86C50.5058 18.19 49.6008 19.28 48.3908 20.13C47.1808 20.97 45.8258 21.39 44.3258 21.39ZM39.4358 12.435H49.2158C49.1358 11.595 48.8658 10.83 48.4058 10.14C47.9458 9.44 47.3608 8.88 46.6508 8.46C45.9408 8.04 45.1658 7.83 44.3258 7.83C43.4858 7.83 42.7158 8.035 42.0158 8.445C41.3158 8.855 40.7358 9.41 40.2758 10.11C39.8258 10.8 39.5458 11.575 39.4358 12.435ZM57.4121 21.285C56.6021 21.255 55.8121 21.105 55.0421 20.835C54.2821 20.555 53.6121 20.18 53.0321 19.71C52.4621 19.23 52.0471 18.68 51.7871 18.06L53.9471 17.13C54.0971 17.47 54.3671 17.79 54.7571 18.09C55.1471 18.39 55.5971 18.63 56.1071 18.81C56.6171 18.99 57.1321 19.08 57.6521 19.08C58.2021 19.08 58.7171 18.995 59.1971 18.825C59.6771 18.655 60.0671 18.405 60.3671 18.075C60.6771 17.735 60.8321 17.33 60.8321 16.86C60.8321 16.36 60.6621 15.97 60.3221 15.69C59.9921 15.4 59.5721 15.175 59.0621 15.015C58.5621 14.845 58.0521 14.685 57.5321 14.535C56.5021 14.275 55.5821 13.965 54.7721 13.605C53.9621 13.235 53.3221 12.77 52.8521 12.21C52.3921 11.64 52.1621 10.915 52.1621 10.035C52.1621 9.105 52.4171 8.3 52.9271 7.62C53.4471 6.94 54.1271 6.415 54.9671 6.045C55.8071 5.675 56.7071 5.49 57.6671 5.49C58.8771 5.49 59.9821 5.75 60.9821 6.27C61.9821 6.79 62.7271 7.495 63.2171 8.385L61.1921 9.57C61.0221 9.21 60.7621 8.895 60.4121 8.625C60.0621 8.345 59.6621 8.125 59.2121 7.965C58.7621 7.805 58.3021 7.72 57.8321 7.71C57.2521 7.69 56.7071 7.765 56.1971 7.935C55.6971 8.105 55.2921 8.365 54.9821 8.715C54.6821 9.055 54.5321 9.48 54.5321 9.99C54.5321 10.49 54.6921 10.87 55.0121 11.13C55.3421 11.39 55.7671 11.6 56.2871 11.76C56.8171 11.91 57.3921 12.085 58.0121 12.285C58.9221 12.575 59.7721 12.91 60.5621 13.29C61.3521 13.67 61.9871 14.145 62.4671 14.715C62.9571 15.285 63.1971 15.99 63.1871 16.83C63.1871 17.75 62.9121 18.555 62.3621 19.245C61.8121 19.925 61.0971 20.445 60.2171 20.805C59.3471 21.165 58.4121 21.325 57.4121 21.285ZM72.027 8.52H68.622L68.607 21H66.087L66.102 8.52H63.522V6H66.102L66.087 1.29H68.607L68.622 6H72.027V8.52ZM78.923 21V-1.43051e-06H81.653L92.138 16.44V-1.43051e-06H94.658V21H91.943L81.443 4.56V21H78.923ZM103.213 21.39C101.833 21.39 100.573 21.035 99.4325 20.325C98.3025 19.615 97.3975 18.665 96.7175 17.475C96.0475 16.275 95.7125 14.95 95.7125 13.5C95.7125 12.4 95.9075 11.375 96.2975 10.425C96.6875 9.465 97.2225 8.625 97.9025 7.905C98.5925 7.175 99.3925 6.605 100.303 6.195C101.213 5.785 102.183 5.58 103.213 5.58C104.343 5.58 105.378 5.81 106.318 6.27C107.268 6.72 108.078 7.35 108.748 8.16C109.428 8.97 109.933 9.91 110.263 10.98C110.603 12.05 110.728 13.195 110.638 14.415H98.3975C98.5175 15.265 98.7975 16.025 99.2375 16.695C99.6775 17.355 100.238 17.88 100.918 18.27C101.608 18.66 102.373 18.86 103.213 18.87C104.113 18.87 104.928 18.64 105.658 18.18C106.388 17.71 106.978 17.07 107.428 16.26L109.993 16.86C109.393 18.19 108.488 19.28 107.278 20.13C106.068 20.97 104.713 21.39 103.213 21.39ZM98.3225 12.435H108.103C108.023 11.595 107.753 10.83 107.293 10.14C106.833 9.44 106.248 8.88 105.538 8.46C104.828 8.04 104.053 7.83 103.213 7.83C102.373 7.83 101.603 8.035 100.903 8.445C100.203 8.855 99.6225 9.41 99.1625 10.11C98.7125 10.8 98.4325 11.575 98.3225 12.435ZM117.696 21H115.146L110.121 6H112.581L116.451 17.445L120.276 6H122.871L126.711 17.445L130.536 6H133.026L128.001 21H125.436L121.551 9.45L117.696 21ZM138.441 21.285C137.631 21.255 136.841 21.105 136.071 20.835C135.311 20.555 134.641 20.18 134.061 19.71C133.491 19.23 133.076 18.68 132.816 18.06L134.976 17.13C135.126 17.47 135.396 17.79 135.786 18.09C136.176 18.39 136.626 18.63 137.136 18.81C137.646 18.99 138.161 19.08 138.681 19.08C139.231 19.08 139.746 18.995 140.226 18.825C140.706 18.655 141.096 18.405 141.396 18.075C141.706 17.735 141.861 17.33 141.861 16.86C141.861 16.36 141.691 15.97 141.351 15.69C141.021 15.4 140.601 15.175 140.091 15.015C139.591 14.845 139.081 14.685 138.561 14.535C137.531 14.275 136.611 13.965 135.801 13.605C134.991 13.235 134.351 12.77 133.881 12.21C133.421 11.64 133.191 10.915 133.191 10.035C133.191 9.105 133.446 8.3 133.956 7.62C134.476 6.94 135.156 6.415 135.996 6.045C136.836 5.675 137.736 5.49 138.696 5.49C139.906 5.49 141.011 5.75 142.011 6.27C143.011 6.79 143.756 7.495 144.246 8.385L142.221 9.57C142.051 9.21 141.791 8.895 141.441 8.625C141.091 8.345 140.691 8.125 140.241 7.965C139.791 7.805 139.331 7.72 138.861 7.71C138.281 7.69 137.736 7.765 137.226 7.935C136.726 8.105 136.321 8.365 136.011 8.715C135.711 9.055 135.561 9.48 135.561 9.99C135.561 10.49 135.721 10.87 136.041 11.13C136.371 11.39 136.796 11.6 137.316 11.76C137.846 11.91 138.421 12.085 139.041 12.285C139.951 12.575 140.801 12.91 141.591 13.29C142.381 13.67 143.016 14.145 143.496 14.715C143.986 15.285 144.226 15.99 144.216 16.83C144.216 17.75 143.941 18.555 143.391 19.245C142.841 19.925 142.126 20.445 141.246 20.805C140.376 21.165 139.441 21.325 138.441 21.285Z" fill="white"/>
</svg>
